<svg xmlns="http://www.w3.org/2000/svg" viewBox="0 0 435.08 98.1"><defs><style>.cls-1{fill:#5d5c60;}.cls-2{fill:#f44f5b;}</style></defs><g id="Capa_2" data-name="Capa 2"><g id="Landing"><path class="cls-1" d="M129.11,47V63.52c-.31.11-.72.22-1.23.35a6.89,6.89,0,0,1-1.69.19q-3.37,0-3.38-2.84V20.36a2.63,2.63,0,0,1,.61-1.88,4.23,4.23,0,0,1,1.92-1,27.13,27.13,0,0,1,5.42-1c2.12-.2,4.19-.31,6.18-.31q9.76,0,14.25,4.11t4.49,11.1q0,7.14-4.6,11.41T136.87,47Zm7.37-5.22q6.15,0,9.53-2.54t3.38-7.83q0-5.22-3.27-7.65t-9.33-2.41c-1.38,0-2.75.06-4.11.19s-2.57.29-3.65.5V41.79Z"/><path class="cls-1" d="M172.66,63.52c-.31.11-.72.22-1.23.35a6.89,6.89,0,0,1-1.69.19q-3.37,0-3.38-2.84V20.36a2.59,2.59,0,0,1,.62-1.88,4.13,4.13,0,0,1,1.92-1,27.1,27.1,0,0,1,5.49-1c2.17-.2,4.29-.31,6.33-.31q9.69,0,14.41,3.88t4.72,11a14.32,14.32,0,0,1-2.73,8.91,14.88,14.88,0,0,1-8.25,5.15c1.27,1.64,2.56,3.28,3.84,4.92s2.49,3.18,3.65,4.64,2.17,2.78,3.07,4,1.6,2.1,2.11,2.76a3.68,3.68,0,0,1-3.46,2.84,3.57,3.57,0,0,1-2.15-.61,8.21,8.21,0,0,1-1.76-1.92L183,46H172.66Zm8.75-22.73q5.68,0,8.92-2.46t3.22-7.3a8.37,8.37,0,0,0-3.38-7.26q-3.37-2.41-9.68-2.41c-1.38,0-2.77.06-4.18.19s-2.65.29-3.73.5V40.79Z"/><path class="cls-1" d="M212.52,62.76a3.36,3.36,0,0,1-.92-2.46V20.36A3.17,3.17,0,0,1,215,17h25.5a5.72,5.72,0,0,1,.46,1,4.13,4.13,0,0,1,.23,1.43,3.21,3.21,0,0,1-.61,2.07,2.14,2.14,0,0,1-1.77.77h-21V37.1H238.1a5.86,5.86,0,0,1,.46,1,4.31,4.31,0,0,1,.23,1.42,3,3,0,0,1-.61,2,2.17,2.17,0,0,1-1.77.73H217.82V58.45h23.05a7.48,7.48,0,0,1,.46,1,4.26,4.26,0,0,1,.23,1.46,3.09,3.09,0,0,1-.62,2,2.21,2.21,0,0,1-1.77.73H215A3.36,3.36,0,0,1,212.52,62.76Z"/><path class="cls-1" d="M255.76,64.06q-3.37,0-3.37-2.76V17.9a5.62,5.62,0,0,1,4.14-1.38,6.32,6.32,0,0,1,3.15.73,6.53,6.53,0,0,1,2.38,2.65l14.67,24.58c.62,1.07,1.26,2.21,1.92,3.41s1.31,2.41,1.92,3.61,1.2,2.33,1.73,3.38l1.35,2.65.3-.07q-.61-6.23-.73-12.52t-.11-12.29V17.13c.31-.1.72-.22,1.23-.34a6.81,6.81,0,0,1,1.69-.2q3.38,0,3.38,2.77V62.83a4.83,4.83,0,0,1-1.77,1,7.77,7.77,0,0,1-2.38.35,6.43,6.43,0,0,1-3.15-.73,6.67,6.67,0,0,1-2.38-2.65L265.14,36.18c-.62-1-1.27-2.15-2-3.38s-1.36-2.43-2-3.61-1.23-2.3-1.77-3.38-1-2-1.34-2.69l-.31.08c.26,2.46.46,5.26.62,8.41s.23,6.13.23,9v23a8.78,8.78,0,0,1-1.19.35A7,7,0,0,1,255.76,64.06Z"/><path class="cls-1" d="M344.94,40.33a30.54,30.54,0,0,1-1.69,10.56,21,21,0,0,1-4.69,7.6,19.74,19.74,0,0,1-7.06,4.61,25.49,25.49,0,0,1-17.67,0,19.74,19.74,0,0,1-7.06-4.61,21,21,0,0,1-4.69-7.6,30.31,30.31,0,0,1-1.69-10.56,29.54,29.54,0,0,1,1.73-10.53,21.83,21.83,0,0,1,4.72-7.6,19.62,19.62,0,0,1,7.07-4.65,25.2,25.2,0,0,1,17.51,0,19.7,19.7,0,0,1,7.07,4.65,21.83,21.83,0,0,1,4.72,7.6A29.54,29.54,0,0,1,344.94,40.33Zm-6.38,0q0-9.22-4.34-14.14a14.66,14.66,0,0,0-11.56-4.91,16.1,16.1,0,0,0-6.52,1.27,13.67,13.67,0,0,0-5,3.68,16.81,16.81,0,0,0-3.18,6,26.78,26.78,0,0,0-1.12,8.14q0,9.21,4.3,14.13a14.54,14.54,0,0,0,11.52,4.92q7.3,0,11.6-4.92T338.56,40.33Z"/><path class="cls-1" d="M374.9,63.06a3.46,3.46,0,0,1-1.46.69,8.47,8.47,0,0,1-2.38.31,7.62,7.62,0,0,1-2.62-.42,2.46,2.46,0,0,1-1.53-1.27q-1-2-2.35-5.14c-.89-2.1-1.84-4.45-2.84-7s-2-5.31-3.07-8.18-2.06-5.71-3-8.53-1.9-5.54-2.77-8.18-1.61-5-2.23-7.1A4.62,4.62,0,0,1,352,17.05a4.09,4.09,0,0,1,2.07-.53,2.94,2.94,0,0,1,2.15.69,5.28,5.28,0,0,1,1.15,2.07q3.47,10.06,6.61,19.43t6.91,19h.31q1.68-4.38,3.49-9.33c1.21-3.3,2.38-6.71,3.54-10.22s2.27-7,3.38-10.63,2.08-7.09,2.95-10.53a5.63,5.63,0,0,1,2.61-.53,3.4,3.4,0,0,1,2.23.69,2.5,2.5,0,0,1,.85,2.07,20.12,20.12,0,0,1-.89,4.34q-.89,3.19-2.26,7.41T384,40.1q-1.72,4.83-3.42,9.29c-1.13,3-2.2,5.68-3.23,8.14S375.51,61.83,374.9,63.06Z"/><path class="cls-1" d="M423.21,51.23H402.62c-.36,1-.74,2.14-1.15,3.35s-.8,2.38-1.19,3.53-.75,2.23-1.11,3.22-.64,1.84-.85,2.5a6.32,6.32,0,0,1-2.53.46,3.84,3.84,0,0,1-2.19-.65,2.37,2.37,0,0,1-1-2.11,4.79,4.79,0,0,1,.23-1.42c.15-.49.33-1,.54-1.58.76-2.15,1.75-4.91,2.95-8.29s2.51-7,3.92-10.8,2.84-7.65,4.3-11.52,2.81-7.33,4-10.41a10,10,0,0,1,1.84-.61,10.62,10.62,0,0,1,2.53-.31,9.75,9.75,0,0,1,3,.46,2.61,2.61,0,0,1,1.81,1.54q1.85,4.45,3.95,10.18T426,40.48q2.16,6,4.11,11.79t3.5,10.49a4.83,4.83,0,0,1-1.46,1.11,4.27,4.27,0,0,1-1.92.42,3.39,3.39,0,0,1-2.23-.65,5,5,0,0,1-1.3-2.19ZM412.92,21.82c-.57,1.53-1.21,3.29-1.92,5.26s-1.46,4-2.23,6.18-1.54,4.33-2.3,6.53-1.49,4.3-2.16,6.3H421.6c-.77-2.31-1.57-4.62-2.38-7s-1.61-4.57-2.35-6.72-1.43-4.14-2.07-6-1.17-3.36-1.58-4.64Z"/><path class="cls-2" d="M145.1,79.8a1.34,1.34,0,0,1-.26.83,1.63,1.63,0,0,1-.62.53,12.23,12.23,0,0,0-1.66-.89,5.71,5.71,0,0,0-2.35-.42,5.79,5.79,0,0,0-2.23.42,4.89,4.89,0,0,0-1.75,1.22,5.68,5.68,0,0,0-1.15,2,8.32,8.32,0,0,0-.42,2.75A6.61,6.61,0,0,0,136.21,91a5.45,5.45,0,0,0,4.12,1.61,6.52,6.52,0,0,0,2.36-.39,8.63,8.63,0,0,0,1.72-.88,2.1,2.1,0,0,1,.57.55,1.41,1.41,0,0,1,.26.83,1.37,1.37,0,0,1-.21.73,1.87,1.87,0,0,1-.68.61,6.28,6.28,0,0,1-1.66.69,9.59,9.59,0,0,1-2.67.31,9.8,9.8,0,0,1-3.3-.54,7.47,7.47,0,0,1-2.67-1.64,7.58,7.58,0,0,1-1.79-2.75,11.51,11.51,0,0,1,0-7.71,8.13,8.13,0,0,1,1.79-2.78A7.49,7.49,0,0,1,136.69,78a8.89,8.89,0,0,1,3.19-.57,10,10,0,0,1,2.15.21,7.33,7.33,0,0,1,1.64.54,3.08,3.08,0,0,1,1.06.78A1.38,1.38,0,0,1,145.1,79.8Z"/><path class="cls-2" d="M164,86.21a10.66,10.66,0,0,1-.63,3.82,7.55,7.55,0,0,1-1.73,2.77,7.33,7.33,0,0,1-2.61,1.68,9.75,9.75,0,0,1-6.57,0,7.15,7.15,0,0,1-2.61-1.68A7.67,7.67,0,0,1,148.15,90a10.66,10.66,0,0,1-.63-3.82,10.33,10.33,0,0,1,.64-3.8,7.86,7.86,0,0,1,1.75-2.76,7.19,7.19,0,0,1,2.62-1.7A9.52,9.52,0,0,1,159,78a7.24,7.24,0,0,1,2.61,1.7,8,8,0,0,1,1.75,2.76A10.33,10.33,0,0,1,164,86.21Zm-3,0a7,7,0,0,0-1.42-4.73,5.19,5.19,0,0,0-7.56,0,6.94,6.94,0,0,0-1.43,4.72A7.07,7.07,0,0,0,152,91a5.2,5.2,0,0,0,7.58,0A7,7,0,0,0,161,86.21Z"/><path class="cls-2" d="M180.82,94.69a3.34,3.34,0,0,1-1.11.16,2.86,2.86,0,0,1-1.35-.29,2.71,2.71,0,0,1-1-1.1l-4.58-8c-.2-.35-.41-.72-.62-1.11s-.42-.78-.62-1.17-.38-.76-.55-1.12-.33-.68-.46-1l-.14,0c.09,1,.16,2,.2,3.1s0,2.14,0,3.12v7.25c-.13,0-.32.08-.57.13a4.77,4.77,0,0,1-.76.06,1.94,1.94,0,0,1-1.21-.3,1.26,1.26,0,0,1-.38-1V78.27a2,2,0,0,1,.8-.49,3.24,3.24,0,0,1,1.09-.18,3.17,3.17,0,0,1,1.36.28A2.68,2.68,0,0,1,172,79l4.61,8c.2.36.41.73.61,1.12s.41.77.6,1.16.38.77.55,1.13.33.68.46,1l.11,0c-.14-1.41-.23-2.8-.25-4.18s0-2.73,0-4V77.8l.58-.13a4.71,4.71,0,0,1,.78-.07,2,2,0,0,1,1.21.31,1.29,1.29,0,0,1,.37,1V94.27A2.6,2.6,0,0,1,180.82,94.69Z"/><path class="cls-2" d="M191,92.6a3.86,3.86,0,0,0,2.58-.72,2.34,2.34,0,0,0,.84-1.86,2.15,2.15,0,0,0-.64-1.61,5,5,0,0,0-2-1l-2.08-.64a11.07,11.07,0,0,1-1.77-.71,5.34,5.34,0,0,1-1.34-.94,3.59,3.59,0,0,1-.85-1.28,4.71,4.71,0,0,1-.29-1.71A4.13,4.13,0,0,1,187,78.65a7,7,0,0,1,4.41-1.27,11.68,11.68,0,0,1,2.11.18,7.77,7.77,0,0,1,1.68.5,3.71,3.71,0,0,1,1.11.75,1.34,1.34,0,0,1,.4.93,1.39,1.39,0,0,1-.24.82,1.94,1.94,0,0,1-.57.57,6.23,6.23,0,0,0-1.81-.9,7.84,7.84,0,0,0-2.49-.38,4,4,0,0,0-2.36.61,1.93,1.93,0,0,0-.83,1.64,1.7,1.7,0,0,0,.58,1.35,5.21,5.21,0,0,0,1.92.9l1.61.48a8.9,8.9,0,0,1,3.62,1.9A4.28,4.28,0,0,1,197.43,90a4.75,4.75,0,0,1-.43,2,4.67,4.67,0,0,1-1.23,1.6,5.74,5.74,0,0,1-2,1,9.55,9.55,0,0,1-2.73.36,11.25,11.25,0,0,1-2.34-.23,8,8,0,0,1-1.82-.58,3.67,3.67,0,0,1-1.18-.83,1.54,1.54,0,0,1-.41-1,1.43,1.43,0,0,1,.33-1,2.1,2.1,0,0,1,.78-.58,7.34,7.34,0,0,0,1.82,1.17A6.32,6.32,0,0,0,191,92.6Z"/><path class="cls-2" d="M207,80.24V94.6a2.73,2.73,0,0,1-.57.16,5,5,0,0,1-.79.06,1.86,1.86,0,0,1-1.22-.31,1.38,1.38,0,0,1-.36-1.07V80.24h-4.92a1.66,1.66,0,0,1-.23-.5,2.09,2.09,0,0,1-.1-.69,1.35,1.35,0,0,1,.29-.93,1,1,0,0,1,.79-.32H212a1.94,1.94,0,0,1,.2.47,2,2,0,0,1,.1.67c0,.87-.36,1.3-1.08,1.3Z"/><path class="cls-2" d="M218.26,94.6a3.29,3.29,0,0,1-.58.16,4.92,4.92,0,0,1-.8.06,1.93,1.93,0,0,1-1.24-.31,1.35,1.35,0,0,1-.38-1.07V79.1a1,1,0,0,1,.27-.73,1.71,1.71,0,0,1,.73-.41,8.62,8.62,0,0,1,2.06-.41,23.89,23.89,0,0,1,2.39-.11c2.41,0,4.2.48,5.37,1.46A5,5,0,0,1,227.85,83a5.11,5.11,0,0,1-1,3.13,5.72,5.72,0,0,1-2.74,1.93c.45.55.88,1.1,1.31,1.65l1.21,1.56,1,1.33c.31.4.55.73.74,1a1.57,1.57,0,0,1-.61,1,1.78,1.78,0,0,1-1,.33,1.61,1.61,0,0,1-1-.32,4.26,4.26,0,0,1-.78-.87l-3.59-5.17h-3.11Zm2.67-8.47a4.71,4.71,0,0,0,2.86-.78A2.75,2.75,0,0,0,224.85,83a2.71,2.71,0,0,0-1.07-2.33,5.36,5.36,0,0,0-3.16-.78q-.63,0-1.26.06a10.35,10.35,0,0,0-1.12.14v6Z"/><path class="cls-2" d="M244.64,91.33a5.47,5.47,0,0,1-1.34,2,5.7,5.7,0,0,1-2.13,1.28,8.68,8.68,0,0,1-2.91.45,8.52,8.52,0,0,1-2.87-.45,5.74,5.74,0,0,1-2.14-1.28,5.44,5.44,0,0,1-1.33-2,6.94,6.94,0,0,1-.46-2.59V77.8c.13,0,.32-.08.58-.13a5.31,5.31,0,0,1,.81-.07,2,2,0,0,1,1.19.31,1.29,1.29,0,0,1,.39,1.08v9.59a3.9,3.9,0,0,0,1.1,3,3.82,3.82,0,0,0,2.73,1,4.17,4.17,0,0,0,1.53-.26,3.61,3.61,0,0,0,1.22-.77,3.17,3.17,0,0,0,.82-1.24,4.72,4.72,0,0,0,.29-1.75V77.8c.13,0,.33-.08.59-.13a5.18,5.18,0,0,1,.8-.07,2,2,0,0,1,1.2.31A1.29,1.29,0,0,1,245.1,79v9.75A7.15,7.15,0,0,1,244.64,91.33Z"/><path class="cls-2" d="M256.18,80.24V94.6a2.73,2.73,0,0,1-.57.16,5,5,0,0,1-.79.06,1.85,1.85,0,0,1-1.22-.31,1.38,1.38,0,0,1-.36-1.07V80.24h-4.92a1.94,1.94,0,0,1-.24-.5,2.39,2.39,0,0,1-.1-.69,1.3,1.3,0,0,1,.3-.93,1,1,0,0,1,.79-.32h12.08a1.91,1.91,0,0,1,.21.47,2.35,2.35,0,0,1,.1.67c0,.87-.36,1.3-1.09,1.3Z"/><path class="cls-2" d="M279.26,86.21a10.66,10.66,0,0,1-.63,3.82,7.55,7.55,0,0,1-1.73,2.77,7.33,7.33,0,0,1-2.61,1.68,9.15,9.15,0,0,1-3.28.57,9.28,9.28,0,0,1-3.29-.57,7.15,7.15,0,0,1-2.61-1.68A7.67,7.67,0,0,1,263.39,90a10.66,10.66,0,0,1-.63-3.82,10.33,10.33,0,0,1,.64-3.8,8,8,0,0,1,1.75-2.76,7.28,7.28,0,0,1,2.62-1.7,9.52,9.52,0,0,1,6.49,0,7.24,7.24,0,0,1,2.61,1.7,7.86,7.86,0,0,1,1.75,2.76A10.33,10.33,0,0,1,279.26,86.21Zm-3,0a7,7,0,0,0-1.41-4.73,5.2,5.2,0,0,0-7.57,0,6.94,6.94,0,0,0-1.43,4.72A7.07,7.07,0,0,0,267.23,91a5.21,5.21,0,0,0,7.59,0A7.07,7.07,0,0,0,276.23,86.21Z"/><path class="cls-2" d="M285.93,94.6a3.72,3.72,0,0,1-.59.16,4.92,4.92,0,0,1-.8.06,1.93,1.93,0,0,1-1.24-.31,1.35,1.35,0,0,1-.37-1.07V79.1a1,1,0,0,1,.26-.73,1.75,1.75,0,0,1,.74-.41,8.53,8.53,0,0,1,2.05-.41,23.89,23.89,0,0,1,2.39-.11c2.41,0,4.2.48,5.38,1.46A5,5,0,0,1,295.51,83a5.11,5.11,0,0,1-1,3.13,5.72,5.72,0,0,1-2.74,1.93c.45.55.88,1.1,1.31,1.65l1.21,1.56,1,1.33.73,1a1.53,1.53,0,0,1-.61,1,1.75,1.75,0,0,1-1,.33,1.62,1.62,0,0,1-1.05-.32,4.26,4.26,0,0,1-.78-.87L289,88.52h-3.11Zm2.66-8.47a4.69,4.69,0,0,0,2.86-.78,3.11,3.11,0,0,0,0-4.69,5.3,5.3,0,0,0-3.15-.78c-.43,0-.85,0-1.27.06a10.68,10.68,0,0,0-1.12.14v6Z"/><path class="cls-2" d="M309.06,90.44h-6.77l-1.37,4.25a2.24,2.24,0,0,1-.52.16,3.26,3.26,0,0,1-.67.06,1.94,1.94,0,0,1-1.14-.31,1,1,0,0,1-.44-.91,2,2,0,0,1,.08-.6c.06-.2.13-.41.22-.65.24-.78.58-1.79,1-3s.89-2.53,1.38-3.9,1-2.72,1.49-4,.94-2.46,1.31-3.4a3,3,0,0,1,.86-.32,4.6,4.6,0,0,1,2.64.07,1.33,1.33,0,0,1,.86.77c.4,1.06.85,2.26,1.33,3.6s1,2.73,1.44,4.15,1,2.83,1.39,4.2.85,2.61,1.2,3.72a2,2,0,0,1-.66.46,2.27,2.27,0,0,1-.95.18,1.69,1.69,0,0,1-1.09-.29,2.28,2.28,0,0,1-.55-1Zm-3.39-10.25-.61,1.69-.69,2c-.24.69-.48,1.4-.72,2.11s-.48,1.4-.7,2.07h5.47c-.24-.74-.48-1.49-.73-2.24L307,83.66c-.24-.69-.45-1.33-.66-1.93s-.37-1.12-.5-1.54Z"/><path class="cls-2" d="M322.37,94.24a1.55,1.55,0,0,1-.45-1.17V77.8l.6-.13a4.94,4.94,0,0,1,.79-.07,2,2,0,0,1,1.21.31,1.26,1.26,0,0,1,.4,1.08v13.2h7.53a1.94,1.94,0,0,1,.25.5,2.08,2.08,0,0,1,.11.69,1.35,1.35,0,0,1-.31,1,1,1,0,0,1-.8.34h-8.17A1.54,1.54,0,0,1,322.37,94.24Z"/><path class="cls-2" d="M338.35,94.76a5,5,0,0,1-.79.06,2,2,0,0,1-1.24-.31,1.35,1.35,0,0,1-.37-1.07V77.8l.6-.13a4.94,4.94,0,0,1,.79-.07,1.93,1.93,0,0,1,1.19.31,1.29,1.29,0,0,1,.39,1.08V94.6A2.73,2.73,0,0,1,338.35,94.76Z"/><path class="cls-2" d="M353.7,90.33a2,2,0,0,1-.61.33,2.72,2.72,0,0,1-.89.14,2.66,2.66,0,0,1-1-.18,1.07,1.07,0,0,1-.59-.57c-.86-2-1.59-3.71-2.21-5.22S347.26,82,346.89,81h-.14c-.05,1.31-.1,2.52-.15,3.62s-.1,2.19-.15,3.24-.12,2.13-.18,3.22-.14,2.27-.21,3.53a2.9,2.9,0,0,1-.57.15,3.51,3.51,0,0,1-.74.07c-1,0-1.5-.4-1.5-1.22,0-.24,0-.67,0-1.28s.07-1.33.12-2.18.1-1.77.16-2.79.14-2,.21-3.1.15-2.07.22-3.08.15-1.94.23-2.79a2.48,2.48,0,0,1,.73-.47,2.83,2.83,0,0,1,1.26-.25,2.64,2.64,0,0,1,1.42.32,2.24,2.24,0,0,1,.84.95c.29.65.6,1.35.91,2.1s.63,1.51.95,2.28.62,1.53.91,2.29.59,1.47.86,2.14h.14c.35-.93.71-1.84,1.07-2.75s.71-1.78,1.06-2.61.66-1.62,1-2.36.59-1.41.85-2a4.1,4.1,0,0,1,.75-.25,3.44,3.44,0,0,1,.91-.11,2.81,2.81,0,0,1,1.38.27,1.37,1.37,0,0,1,.6.81c.07.33.15.88.25,1.65s.18,1.66.27,2.66.19,2.06.28,3.18.18,2.2.25,3.25.14,2,.2,2.88.09,1.57.11,2.07a2.63,2.63,0,0,1-.66.3,3.26,3.26,0,0,1-.82.09,2,2,0,0,1-1-.25,1.07,1.07,0,0,1-.48-.94q-.12-1.89-.21-3.72c-.07-1.23-.13-2.38-.18-3.48s-.11-2.1-.16-3-.08-1.72-.12-2.36h-.11c-.36.94-.83,2.14-1.43,3.61S354.64,88,353.7,90.33Z"/><path class="cls-2" d="M367.77,94.76a5.1,5.1,0,0,1-.8.06,1.91,1.91,0,0,1-1.23-.31,1.35,1.35,0,0,1-.38-1.07V77.8l.6-.13a4.94,4.94,0,0,1,.79-.07,2,2,0,0,1,1.2.31,1.29,1.29,0,0,1,.39,1.08V94.6A2.73,2.73,0,0,1,367.77,94.76Z"/><path class="cls-2" d="M379.5,80.24V94.6a2.73,2.73,0,0,1-.57.16,5,5,0,0,1-.79.06,1.85,1.85,0,0,1-1.22-.31,1.38,1.38,0,0,1-.36-1.07V80.24h-4.92a1.94,1.94,0,0,1-.24-.5,2.4,2.4,0,0,1-.09-.69,1.3,1.3,0,0,1,.29-.93,1,1,0,0,1,.79-.32h12.08a1.6,1.6,0,0,1,.21.47,2,2,0,0,1,.1.67c0,.87-.36,1.3-1.09,1.3Z"/><path class="cls-2" d="M396,90.44h-6.78l-1.36,4.25a2.33,2.33,0,0,1-.53.16,3.2,3.2,0,0,1-.67.06,1.94,1.94,0,0,1-1.14-.31,1,1,0,0,1-.44-.91,2.35,2.35,0,0,1,.08-.6,6.49,6.49,0,0,1,.23-.65c.24-.78.58-1.79,1-3l1.39-3.9c.49-1.37,1-2.72,1.48-4s.94-2.46,1.31-3.4a3.12,3.12,0,0,1,.86-.32,4.4,4.4,0,0,1,1.2-.16,4.35,4.35,0,0,1,1.44.23,1.31,1.31,0,0,1,.86.77c.41,1.06.85,2.26,1.33,3.6s1,2.73,1.45,4.15.94,2.83,1.39,4.2.84,2.61,1.19,3.72a1.89,1.89,0,0,1-.65.46,2.35,2.35,0,0,1-1,.18,1.64,1.64,0,0,1-1.08-.29,2.28,2.28,0,0,1-.56-1Zm-3.39-10.25c-.19.5-.39,1.06-.61,1.69s-.46,1.29-.7,2-.48,1.4-.72,2.11-.47,1.4-.69,2.07h5.47c-.24-.74-.49-1.49-.74-2.24l-.72-2.15-.65-1.93c-.21-.6-.37-1.12-.5-1.54Z"/><path class="cls-2" d="M417.91,86.08a11.17,11.17,0,0,1-.63,3.93,7.14,7.14,0,0,1-4.67,4.44,11.93,11.93,0,0,1-3.7.54c-.59,0-1.28,0-2.08-.08a9.71,9.71,0,0,1-2.22-.42,1.56,1.56,0,0,1-1.28-1.5V79.08a1,1,0,0,1,.27-.74,1.6,1.6,0,0,1,.73-.4,9.74,9.74,0,0,1,2.11-.41c.76-.06,1.5-.09,2.23-.09a12.8,12.8,0,0,1,3.76.52,7.89,7.89,0,0,1,2.93,1.62,7.31,7.31,0,0,1,1.89,2.7A10.08,10.08,0,0,1,417.91,86.08Zm-3.05,0a7.71,7.71,0,0,0-.47-2.82,5.16,5.16,0,0,0-1.31-1.93,5.26,5.26,0,0,0-1.94-1.11,7.72,7.72,0,0,0-2.39-.36,12.79,12.79,0,0,0-2.45.2V92.32a6.46,6.46,0,0,0,1.24.19c.45,0,.91,0,1.37,0a5.75,5.75,0,0,0,4.42-1.63A6.79,6.79,0,0,0,414.86,86.1Z"/><path class="cls-2" d="M430.78,90.44H424l-1.36,4.25a2.49,2.49,0,0,1-.53.16,3.26,3.26,0,0,1-.67.06,1.94,1.94,0,0,1-1.14-.31,1,1,0,0,1-.44-.91,2.35,2.35,0,0,1,.08-.6,6.49,6.49,0,0,1,.23-.65c.24-.78.57-1.79,1-3s.9-2.53,1.39-3.9,1-2.72,1.48-4,.94-2.46,1.31-3.4a3,3,0,0,1,.86-.32,4.6,4.6,0,0,1,2.64.07,1.33,1.33,0,0,1,.86.77c.41,1.06.85,2.26,1.33,3.6s1,2.73,1.45,4.15.94,2.83,1.39,4.2.84,2.61,1.19,3.72a2,2,0,0,1-.65.46,2.35,2.35,0,0,1-1,.18,1.64,1.64,0,0,1-1.08-.29,2.19,2.19,0,0,1-.56-1Zm-3.39-10.25c-.19.5-.39,1.06-.62,1.69l-.69,2c-.24.69-.48,1.4-.72,2.11s-.47,1.4-.7,2.07h5.48c-.24-.74-.49-1.49-.74-2.24l-.72-2.15L428,81.73c-.21-.6-.38-1.12-.5-1.54Z"/><path class="cls-2" d="M27.38,28.3A1.28,1.28,0,0,0,28.66,27c.07-4.41-1.13-7.91-3.58-10.4a13.41,13.41,0,0,0-8.81-3.72A1.28,1.28,0,0,0,15,14.18c-.07,4.41,1.13,7.91,3.58,10.4A13.37,13.37,0,0,0,27.38,28.3Zm-4.13-9.86a10.69,10.69,0,0,1,2.82,7.16,10.4,10.4,0,0,1-5.67-2.81,10.76,10.76,0,0,1-2.82-7.17A10.5,10.5,0,0,1,23.25,18.44Z"/><path class="cls-2" d="M71.94,68.59a1.28,1.28,0,0,0-1.28,1.26c-.07,4.42,1.13,7.92,3.58,10.4A13.37,13.37,0,0,0,83.05,84a1.28,1.28,0,0,0,1.28-1.26c.07-4.41-1.13-7.91-3.58-10.4A13.41,13.41,0,0,0,71.94,68.59Zm4.13,9.87a10.76,10.76,0,0,1-2.82-7.17,10.52,10.52,0,0,1,5.68,2.82,10.73,10.73,0,0,1,2.81,7.16A10.4,10.4,0,0,1,76.07,78.46Z"/><path class="cls-2" d="M28,70.09c-4.37-.06-7.84,1.15-10.31,3.58a13.43,13.43,0,0,0-3.72,8.81,1.28,1.28,0,0,0,1.28,1.28h.36c4.24,0,7.61-1.2,10-3.58a13.32,13.32,0,0,0,3.72-8.8h0A1.3,1.3,0,0,0,28,70.09Zm-4.16,8.26a10.76,10.76,0,0,1-7.17,2.82,10.47,10.47,0,0,1,2.82-5.67,10.73,10.73,0,0,1,7.16-2.82A10.37,10.37,0,0,1,23.79,78.35Z"/><path class="cls-2" d="M71,28h.36c4.23,0,7.6-1.2,10-3.58a13.36,13.36,0,0,0,3.72-8.8h0a1.29,1.29,0,0,0-1.35-1.28c-4.38-.05-7.84,1.15-10.31,3.58A13.37,13.37,0,0,0,69.7,26.7,1.28,1.28,0,0,0,71,28Zm4.24-8.26a10.73,10.73,0,0,1,7.16-2.82,10.38,10.38,0,0,1-2.82,5.68,10.78,10.78,0,0,1-7.16,2.81A10.36,10.36,0,0,1,75.22,19.72Z"/><path class="cls-2" d="M98.18,48C92.51,39,85.69,34,77.9,33.1c-6.46-.76-12.36,1.42-16.7,3.84a7.27,7.27,0,0,0-3.07-1.37A7.58,7.58,0,0,0,51,38.14,15.72,15.72,0,0,1,48.2,27.49a29.32,29.32,0,0,1,2.21-9.39A1.28,1.28,0,1,0,48.07,17c-.07.15-5.54,12.46.2,21.62a7.24,7.24,0,0,0-7.28-3,7.86,7.86,0,0,0-1.6.51c-2.28-4-4.41-9.53-3.7-15.43.81-6.78,5.19-12.83,13-18C51.12,4.29,59.54,10,61.54,18c1,4,.2,8.14-2.41,12.16a1.28,1.28,0,1,0,2.15,1.4c3-4.65,3.93-9.42,2.74-14.18C61.43,7,49.8.44,49.3.16A1.28,1.28,0,0,0,48,.2C39.06,5.87,34.06,12.69,33.14,20.48c-.79,6.68,1.57,12.76,4.08,17.14a7.77,7.77,0,0,0-2.18,4,12.48,12.48,0,0,0,.72,7.17,17,17,0,0,1-8.24,1.41A29.61,29.61,0,0,1,18.14,48a1.28,1.28,0,0,0-1.07,2.33,32.07,32.07,0,0,0,11.72,2.43,19.42,19.42,0,0,0,8-1.61,29.09,29.09,0,0,0,3.45,4.95c-3.7,2.78-11.19,7.36-19.5,6.37-6.79-.8-12.84-5.18-18-13C4.29,47,10,38.59,18,36.6c4-1,8.13-.19,12.15,2.41a1.3,1.3,0,0,0,1.78-.38,1.28,1.28,0,0,0-.38-1.77c-4.65-3-9.42-3.93-14.18-2.74C7,36.7.44,48.34.16,48.84a1.28,1.28,0,0,0,0,1.31C5.87,59.08,12.69,64.08,20.48,65c9.39,1.12,17.6-4,21.54-7a51.58,51.58,0,0,0,6.53,5.57,1.26,1.26,0,0,0,.75.24h.05a18.09,18.09,0,0,1,.84,6.82A29.63,29.63,0,0,1,48,80a1.28,1.28,0,0,0,.63,1.7,1.26,1.26,0,0,0,.53.11,1.27,1.27,0,0,0,1.17-.75c.06-.13,4.44-10,1.24-18.64a53,53,0,0,0,4.21-3.6c2.78,4,6.56,10.91,5.65,18.52-.81,6.78-5.19,12.83-13,18-2.41-1.5-10.83-7.22-12.83-15.2-1-4-.2-8.14,2.41-12.16a1.28,1.28,0,1,0-2.15-1.4c-3,4.65-3.93,9.42-2.74,14.18C35.67,91.1,47.3,97.67,47.8,97.94a1.25,1.25,0,0,0,.62.16,1.32,1.32,0,0,0,.69-.2C58,92.23,63,85.41,64,77.62c1-8.76-3.32-16.48-6.37-20.68A27.32,27.32,0,0,0,63,48.66a18.21,18.21,0,0,1,6.58-.74A29.76,29.76,0,0,1,79,50.12,1.28,1.28,0,1,0,80,47.79c-.13,0-8.23-3.65-16.18-2a11,11,0,0,0,0-4.54A8.08,8.08,0,0,0,63,38.94c4-2.12,9.11-3.95,14.65-3.29,6.8.8,12.84,5.18,18,13-1.5,2.41-7.24,10.85-15.21,12.83-4,1-8.13.2-12.15-2.41a1.3,1.3,0,0,0-1.78.38,1.28,1.28,0,0,0,.39,1.77A18.52,18.52,0,0,0,77,64.49,16.31,16.31,0,0,0,81,64C91.38,61.4,98,49.76,98.22,49.26A1.28,1.28,0,0,0,98.18,48Zm-48.76-7.7a.21.21,0,0,0,0,.06l-.28-.47C49.2,40,49.31,40.11,49.42,40.25ZM49.3,60.93C39.24,53.4,36.61,46.33,37.54,42.17a4.89,4.89,0,0,1,3.94-4,4.84,4.84,0,0,1,.91-.09c4,0,5.6,5.42,5.67,5.67a1.28,1.28,0,0,0,2.45.07c0-.07,2.33-6.69,7.14-5.77a4.59,4.59,0,0,1,3.73,3.76C62.28,45.85,59.61,53.2,49.3,60.93Z"/></g></g></svg>