<svg xmlns="http://www.w3.org/2000/svg" viewBox="0 0 265.06 59.76"><defs><style>.cls-1{fill:#fff;}</style></defs><g id="Capa_2" data-name="Capa 2"><g id="Landing"><path class="cls-1" d="M78.65,28.64V38.7l-.74.21a4.22,4.22,0,0,1-1,.12c-1.38,0-2.06-.58-2.06-1.73V12.4a1.58,1.58,0,0,1,.37-1.14,2.58,2.58,0,0,1,1.17-.64,16.58,16.58,0,0,1,3.3-.6c1.3-.13,2.55-.19,3.77-.19q5.94,0,8.68,2.5a8.73,8.73,0,0,1,2.74,6.76A9,9,0,0,1,92,26q-2.81,2.59-8.66,2.6Zm4.5-3.18A9.5,9.5,0,0,0,89,23.91,5.58,5.58,0,0,0,91,19.14a5.42,5.42,0,0,0-2-4.66A9.45,9.45,0,0,0,83.33,13c-.84,0-1.67,0-2.5.12s-1.57.18-2.22.3v12Z"/><path class="cls-1" d="M105.19,38.7l-.75.21a4.16,4.16,0,0,1-1,.12c-1.37,0-2.06-.58-2.06-1.73V12.4a1.58,1.58,0,0,1,.37-1.14,2.58,2.58,0,0,1,1.17-.64,16.6,16.6,0,0,1,3.35-.6c1.32-.13,2.61-.19,3.86-.19,3.93,0,6.86.79,8.77,2.36a8.2,8.2,0,0,1,2.88,6.72,8.7,8.7,0,0,1-1.66,5.42,9.06,9.06,0,0,1-5,3.14l2.34,3c.78,1,1.52,1.95,2.22,2.83S121,35,121.49,35.7l1.29,1.69a2.1,2.1,0,0,1-.82,1.26,2.16,2.16,0,0,1-1.29.47,2.18,2.18,0,0,1-1.31-.37,5,5,0,0,1-1.07-1.17L111.46,28h-6.27Zm5.33-13.85a8.76,8.76,0,0,0,5.43-1.5,5.23,5.23,0,0,0,2-4.44,5.1,5.1,0,0,0-2-4.43A10.08,10.08,0,0,0,110,13q-1.26,0-2.55.12c-.86.08-1.62.18-2.27.3V24.85Z"/><path class="cls-1" d="M129.47,38.23a2,2,0,0,1-.56-1.5V12.4A1.93,1.93,0,0,1,131,10.34h15.54a5,5,0,0,1,.28.63,2.74,2.74,0,0,1,.14.87,2,2,0,0,1-.38,1.26,1.28,1.28,0,0,1-1.07.47H132.7v9h12.35a3.17,3.17,0,0,1,.28.63,2.49,2.49,0,0,1,.15.87,1.87,1.87,0,0,1-.38,1.24,1.32,1.32,0,0,1-1.08.44H132.7v9.83h14a4,4,0,0,1,.28.61,2.64,2.64,0,0,1,.14.89,1.93,1.93,0,0,1-.37,1.24,1.32,1.32,0,0,1-1.08.44H131A2,2,0,0,1,129.47,38.23Z"/><path class="cls-1" d="M155.82,39c-1.38,0-2.06-.56-2.06-1.69V10.9a3.42,3.42,0,0,1,2.52-.84,3.84,3.84,0,0,1,1.92.45,3.93,3.93,0,0,1,1.45,1.61l8.94,15,1.17,2.09c.41.73.8,1.46,1.17,2.2s.73,1.42,1,2.06l.82,1.61.19,0c-.25-2.52-.4-5.07-.45-7.62s-.07-5.06-.07-7.49V10.44a6.18,6.18,0,0,1,.75-.21,4.16,4.16,0,0,1,1-.12c1.37,0,2.06.56,2.06,1.68V38.28a2.93,2.93,0,0,1-1.08.58,4.7,4.7,0,0,1-1.45.21,3.83,3.83,0,0,1-1.91-.44A4,4,0,0,1,170.42,37l-8.9-15c-.37-.62-.77-1.31-1.19-2.06s-.83-1.48-1.21-2.2-.75-1.4-1.08-2.06l-.82-1.63-.19,0c.16,1.5.28,3.21.38,5.13s.14,3.73.14,5.45v14a6.74,6.74,0,0,1-.73.21A4.21,4.21,0,0,1,155.82,39Z"/><path class="cls-1" d="M210.14,24.57a18.38,18.38,0,0,1-1,6.43,12.6,12.6,0,0,1-2.85,4.63A12,12,0,0,1,202,38.44a15.56,15.56,0,0,1-10.76,0,12,12,0,0,1-4.3-2.81A12.76,12.76,0,0,1,184,31a18.61,18.61,0,0,1-1-6.43,17.72,17.72,0,0,1,1.06-6.41,13.46,13.46,0,0,1,2.87-4.64,12.07,12.07,0,0,1,4.31-2.83,15.3,15.3,0,0,1,10.67,0,12.11,12.11,0,0,1,4.3,2.83,13.33,13.33,0,0,1,2.88,4.64A18,18,0,0,1,210.14,24.57Zm-3.88,0q0-5.62-2.65-8.61a8.92,8.92,0,0,0-7-3,9.77,9.77,0,0,0-4,.78,8.34,8.34,0,0,0-3,2.24,10.16,10.16,0,0,0-1.94,3.63,16.57,16.57,0,0,0-.68,5c0,3.74.88,6.61,2.62,8.61a9.79,9.79,0,0,0,14.09,0Q206.27,30.18,206.26,24.57Z"/><path class="cls-1" d="M228.39,38.42a2,2,0,0,1-.89.42,5.42,5.42,0,0,1-1.45.19,4.65,4.65,0,0,1-1.59-.26,1.5,1.5,0,0,1-.93-.77c-.41-.81-.89-1.86-1.43-3.14s-1.12-2.7-1.73-4.28-1.24-3.23-1.87-5-1.26-3.48-1.85-5.2-1.16-3.37-1.69-5-1-3.05-1.35-4.33a2.64,2.64,0,0,1,.84-.7,2.42,2.42,0,0,1,1.26-.33,1.79,1.79,0,0,1,1.31.42,3.16,3.16,0,0,1,.7,1.27q2.11,6.12,4,11.84T226,35.19h.19c.68-1.78,1.39-3.67,2.13-5.69s1.45-4.08,2.15-6.22,1.39-4.3,2.06-6.48,1.27-4.32,1.8-6.41a3.3,3.3,0,0,1,1.59-.33,2.1,2.1,0,0,1,1.36.42,1.56,1.56,0,0,1,.51,1.27,12.24,12.24,0,0,1-.54,2.64c-.36,1.3-.82,2.8-1.38,4.52s-1.19,3.55-1.89,5.52-1.4,3.85-2.09,5.66-1.34,3.46-2,5S228.77,37.67,228.39,38.42Z"/><path class="cls-1" d="M257.83,31.21H245.28c-.21.63-.45,1.31-.7,2s-.49,1.45-.72,2.15-.46,1.36-.68,2-.39,1.11-.52,1.52a4,4,0,0,1-1.54.28,2.34,2.34,0,0,1-1.33-.4,1.44,1.44,0,0,1-.59-1.29,2.92,2.92,0,0,1,.14-.86c.1-.3.2-.62.33-1q.71-2,1.8-5.06c.73-2.05,1.53-4.25,2.39-6.57s1.73-4.66,2.62-7,1.71-4.47,2.46-6.34a5.56,5.56,0,0,1,1.12-.37,6.07,6.07,0,0,1,1.54-.19,5.65,5.65,0,0,1,1.8.28,1.57,1.57,0,0,1,1.1.94c.75,1.81,1.56,3.87,2.41,6.2s1.73,4.7,2.6,7.13,1.71,4.83,2.5,7.18,1.51,4.49,2.13,6.39a2.85,2.85,0,0,1-.89.68,2.58,2.58,0,0,1-1.17.26,2.05,2.05,0,0,1-1.35-.4,3,3,0,0,1-.8-1.33Zm-6.27-17.92q-.52,1.41-1.17,3.21C250,17.7,249.5,19,249,20.26s-.94,2.64-1.4,4-.91,2.62-1.32,3.84h10.53c-.46-1.41-.95-2.82-1.45-4.24s-1-2.78-1.42-4.09l-1.27-3.63c-.39-1.11-.71-2.05-1-2.83Z"/><path class="cls-1" d="M88.4,48.61a.8.8,0,0,1-.16.51,1,1,0,0,1-.38.32,7.9,7.9,0,0,0-1-.54,4,4,0,0,0-2.79,0,3,3,0,0,0-1.07.75,3.41,3.41,0,0,0-.7,1.21A5.12,5.12,0,0,0,82,52.54,4,4,0,0,0,83,55.43a3.32,3.32,0,0,0,2.51,1,4,4,0,0,0,1.44-.23,5.72,5.72,0,0,0,1-.54,1.22,1.22,0,0,1,.34.34.79.79,0,0,1,.16.5.83.83,0,0,1-.12.44,1.19,1.19,0,0,1-.42.37,4.07,4.07,0,0,1-1,.43,6.17,6.17,0,0,1-1.63.18,6,6,0,0,1-2-.33,4.61,4.61,0,0,1-1.63-1,4.84,4.84,0,0,1-1.09-1.68,6.52,6.52,0,0,1-.39-2.36,6.31,6.31,0,0,1,.4-2.34,5,5,0,0,1,1.09-1.69,4.56,4.56,0,0,1,1.6-1,5.48,5.48,0,0,1,2-.35,5.87,5.87,0,0,1,1.31.13,4,4,0,0,1,1,.33,1.9,1.9,0,0,1,.64.47A.85.85,0,0,1,88.4,48.61Z"/><path class="cls-1" d="M99.92,52.52a6.43,6.43,0,0,1-.38,2.33,4.51,4.51,0,0,1-1.06,1.68,4.46,4.46,0,0,1-1.59,1,5.58,5.58,0,0,1-2,.34,5.73,5.73,0,0,1-2-.34,4.46,4.46,0,0,1-1.59-1,4.9,4.9,0,0,1-1-1.68,6.66,6.66,0,0,1-.38-2.33,6.37,6.37,0,0,1,.39-2.32,5,5,0,0,1,1.07-1.68,4.28,4.28,0,0,1,1.6-1,5.75,5.75,0,0,1,3.95,0,4.32,4.32,0,0,1,1.59,1,5,5,0,0,1,1.06,1.68A6.37,6.37,0,0,1,99.92,52.52Zm-1.84,0a4.29,4.29,0,0,0-.86-2.88,2.93,2.93,0,0,0-2.32-1,2.89,2.89,0,0,0-2.3,1,4.23,4.23,0,0,0-.87,2.87,4.29,4.29,0,0,0,.87,2.9,2.89,2.89,0,0,0,2.3,1,2.93,2.93,0,0,0,2.32-1A4.35,4.35,0,0,0,98.08,52.52Z"/><path class="cls-1" d="M110.16,57.68a2,2,0,0,1-.68.11,1.77,1.77,0,0,1-.82-.18,1.65,1.65,0,0,1-.63-.67l-2.79-4.86c-.13-.21-.26-.44-.38-.67l-.38-.71-.34-.69c-.1-.22-.2-.41-.27-.58h-.09q.09.89.12,1.89c0,.67,0,1.31,0,1.9v4.42l-.34.08a3.73,3.73,0,0,1-.47,0,1.15,1.15,0,0,1-.74-.19.75.75,0,0,1-.22-.62V47.68a1.12,1.12,0,0,1,.48-.29,2.1,2.1,0,0,1,1.5.06,1.57,1.57,0,0,1,.64.66L107.59,53c.12.21.25.44.37.68s.25.47.36.71.24.46.34.68.2.42.28.59l.07,0q-.14-1.29-.15-2.55c0-.84,0-1.66,0-2.46V47.4l.36-.08a2.29,2.29,0,0,1,.47,0,1.22,1.22,0,0,1,.74.18.79.79,0,0,1,.22.63v9.34A1.39,1.39,0,0,1,110.16,57.68Z"/><path class="cls-1" d="M116.34,56.41a2.37,2.37,0,0,0,1.57-.43,1.45,1.45,0,0,0,.51-1.14,1.3,1.3,0,0,0-.39-1,3,3,0,0,0-1.24-.63l-1.27-.39a6.12,6.12,0,0,1-1.07-.43,3.14,3.14,0,0,1-.82-.57,2.18,2.18,0,0,1-.52-.78,2.8,2.8,0,0,1-.18-1,2.55,2.55,0,0,1,1-2.11,4.25,4.25,0,0,1,2.68-.77,7.27,7.27,0,0,1,1.28.11,4.84,4.84,0,0,1,1,.31,2.18,2.18,0,0,1,.67.45.82.82,0,0,1,.25.57.92.92,0,0,1-.14.5,1.45,1.45,0,0,1-.35.35,3.59,3.59,0,0,0-1.11-.55,4.56,4.56,0,0,0-1.51-.23,2.4,2.4,0,0,0-1.44.37,1.18,1.18,0,0,0-.51,1,1.06,1.06,0,0,0,.35.82,3.19,3.19,0,0,0,1.17.55l1,.29a5.42,5.42,0,0,1,2.21,1.16,2.59,2.59,0,0,1,.79,2,3,3,0,0,1-.26,1.25,2.85,2.85,0,0,1-.76,1,3.26,3.26,0,0,1-1.22.62,5.73,5.73,0,0,1-1.67.22,6.93,6.93,0,0,1-1.42-.13,4.82,4.82,0,0,1-1.11-.36,2.13,2.13,0,0,1-.72-.5.93.93,0,0,1-.25-.61.84.84,0,0,1,.2-.58,1.21,1.21,0,0,1,.47-.35,5,5,0,0,0,1.11.71A4,4,0,0,0,116.34,56.41Z"/><path class="cls-1" d="M126.13,48.88v8.75a1.28,1.28,0,0,1-.34.1,3.89,3.89,0,0,1-.49,0,1.11,1.11,0,0,1-.74-.2.81.81,0,0,1-.22-.65v-8h-3a.93.93,0,0,1-.15-.3,1.33,1.33,0,0,1-.06-.42.81.81,0,0,1,.18-.57.62.62,0,0,1,.48-.19h7.36a.92.92,0,0,1,.13.28,1.35,1.35,0,0,1,.06.41c0,.53-.22.79-.66.79Z"/><path class="cls-1" d="M133,57.63a1.79,1.79,0,0,1-.36.1,3.47,3.47,0,0,1-.49,0,1.14,1.14,0,0,1-.75-.2.81.81,0,0,1-.23-.65V48.19a.65.65,0,0,1,.16-.45,1.07,1.07,0,0,1,.45-.24,5.18,5.18,0,0,1,1.25-.26c.49,0,1-.06,1.46-.06a5,5,0,0,1,3.27.88,3.4,3.4,0,0,1,.49,4.4,3.43,3.43,0,0,1-1.66,1.18l.79,1,.74.94c.23.3.44.57.62.82s.34.44.45.6a.92.92,0,0,1-.37.59,1.1,1.1,0,0,1-.63.2,1,1,0,0,1-.64-.19,2.6,2.6,0,0,1-.47-.54l-2.19-3.14H133Zm1.62-5.16a2.93,2.93,0,0,0,1.75-.47,1.68,1.68,0,0,0,.64-1.44,1.65,1.65,0,0,0-.65-1.42,3.24,3.24,0,0,0-1.92-.48c-.26,0-.52,0-.77,0s-.48,0-.69.08v3.69Z"/><path class="cls-1" d="M149,55.64a3.39,3.39,0,0,1-.81,1.21,3.57,3.57,0,0,1-1.31.78,5.87,5.87,0,0,1-3.52,0,3.53,3.53,0,0,1-1.3-.78,3.15,3.15,0,0,1-.81-1.21,4.23,4.23,0,0,1-.28-1.58V47.4a2.35,2.35,0,0,1,.35-.08,2.63,2.63,0,0,1,.49,0,1.21,1.21,0,0,1,.73.18.81.81,0,0,1,.24.66V54a2.38,2.38,0,0,0,.67,1.83,2.31,2.31,0,0,0,1.66.62,2.52,2.52,0,0,0,.93-.16A2.06,2.06,0,0,0,147.33,55a2.93,2.93,0,0,0,.18-1.07V47.4a2.07,2.07,0,0,1,.35-.08,2.63,2.63,0,0,1,.49,0,1.21,1.21,0,0,1,.73.18.81.81,0,0,1,.24.66v5.94A4.44,4.44,0,0,1,149,55.64Z"/><path class="cls-1" d="M156.07,48.88v8.75a1.51,1.51,0,0,1-.35.1,3.58,3.58,0,0,1-.48,0,1.14,1.14,0,0,1-.75-.2.85.85,0,0,1-.22-.65v-8h-3a.93.93,0,0,1-.14-.3,1.33,1.33,0,0,1-.06-.42.86.86,0,0,1,.17-.57.63.63,0,0,1,.49-.19h7.36a1.29,1.29,0,0,1,.12.28,1.35,1.35,0,0,1,.06.41c0,.53-.22.79-.66.79Z"/><path class="cls-1" d="M170.13,52.52a6.66,6.66,0,0,1-.38,2.33,4.64,4.64,0,0,1-1.06,1.68,4.46,4.46,0,0,1-1.59,1,6.05,6.05,0,0,1-4,0,4.29,4.29,0,0,1-1.59-1,4.62,4.62,0,0,1-1-1.68,6.66,6.66,0,0,1-.38-2.33,6.37,6.37,0,0,1,.39-2.32,5,5,0,0,1,1.06-1.68,4.45,4.45,0,0,1,1.6-1,5.59,5.59,0,0,1,2-.35,5.53,5.53,0,0,1,2,.35,4.32,4.32,0,0,1,1.59,1,4.84,4.84,0,0,1,1.07,1.68A6.37,6.37,0,0,1,170.13,52.52Zm-1.84,0a4.24,4.24,0,0,0-.87-2.88,2.92,2.92,0,0,0-2.32-1,2.89,2.89,0,0,0-2.29,1,4.23,4.23,0,0,0-.87,2.87,4.35,4.35,0,0,0,.86,2.9,3.19,3.19,0,0,0,4.62,0A4.29,4.29,0,0,0,168.29,52.52Z"/><path class="cls-1" d="M174.19,57.63a1.88,1.88,0,0,1-.35.1,3.75,3.75,0,0,1-.5,0,1.14,1.14,0,0,1-.75-.2.81.81,0,0,1-.23-.65V48.19a.65.65,0,0,1,.16-.45,1.07,1.07,0,0,1,.45-.24,5.18,5.18,0,0,1,1.25-.26c.49,0,1-.06,1.46-.06a5,5,0,0,1,3.27.88,3.4,3.4,0,0,1,.49,4.4,3.39,3.39,0,0,1-1.66,1.18l.79,1,.74.94.63.82c.18.24.33.44.44.6a.92.92,0,0,1-.37.59,1.09,1.09,0,0,1-.62.2,1,1,0,0,1-.65-.19,2.6,2.6,0,0,1-.47-.54l-2.18-3.14h-1.9Zm1.63-5.16a2.92,2.92,0,0,0,1.74-.47,1.68,1.68,0,0,0,.64-1.44,1.65,1.65,0,0,0-.65-1.42,3.2,3.2,0,0,0-1.92-.48c-.26,0-.52,0-.77,0l-.69.08v3.69Z"/><path class="cls-1" d="M188.29,55.1h-4.13l-.83,2.58a1.73,1.73,0,0,1-.32.11,2.46,2.46,0,0,1-.41,0,1.15,1.15,0,0,1-.69-.19.63.63,0,0,1-.27-.56,1.12,1.12,0,0,1,.05-.36,3.05,3.05,0,0,1,.13-.4c.15-.47.35-1.08.62-1.83s.55-1.55.85-2.38.6-1.66.9-2.46.57-1.5.8-2.08a2.24,2.24,0,0,1,.52-.19,3,3,0,0,1,.73-.09,2.67,2.67,0,0,1,.88.13.81.81,0,0,1,.52.48c.25.64.52,1.37.82,2.19s.58,1.66.87,2.53.58,1.72.85,2.55l.73,2.27a1.19,1.19,0,0,1-.4.28,1.46,1.46,0,0,1-.58.11,1,1,0,0,1-.66-.18,1.3,1.3,0,0,1-.34-.6Zm-2.07-6.25c-.11.31-.24.65-.37,1s-.28.79-.42,1.21-.3.86-.44,1.29l-.43,1.26h3.34l-.45-1.36c-.15-.46-.3-.9-.44-1.31s-.28-.81-.4-1.18-.23-.68-.3-.94Z"/><path class="cls-1" d="M196.39,57.41a1,1,0,0,1-.27-.71V47.4l.36-.08a2.63,2.63,0,0,1,.49,0,1.23,1.23,0,0,1,.73.18.78.78,0,0,1,.25.66v8h4.58a1.27,1.27,0,0,1,.16.31,1.33,1.33,0,0,1,.06.42.85.85,0,0,1-.18.59.63.63,0,0,1-.49.2h-5A1,1,0,0,1,196.39,57.41Z"/><path class="cls-1" d="M206.13,57.73a3.58,3.58,0,0,1-.48,0,1.19,1.19,0,0,1-.76-.2.81.81,0,0,1-.22-.65V47.4l.36-.08a2.45,2.45,0,0,1,.48,0,1.21,1.21,0,0,1,.73.18.81.81,0,0,1,.24.66v9.51A1.51,1.51,0,0,1,206.13,57.73Z"/><path class="cls-1" d="M215.48,55a1.28,1.28,0,0,1-.37.2,1.55,1.55,0,0,1-.55.09,1.62,1.62,0,0,1-.61-.11.67.67,0,0,1-.37-.35c-.52-1.2-1-2.26-1.34-3.18s-.68-1.7-.91-2.32h-.08c0,.8-.07,1.54-.1,2.21s-.06,1.33-.09,2-.07,1.3-.11,2-.08,1.38-.13,2.15a1.82,1.82,0,0,1-.34.09,2.14,2.14,0,0,1-.45,0c-.61,0-.91-.25-.91-.75,0-.15,0-.41,0-.78s0-.81.07-1.33.06-1.08.1-1.7.08-1.25.13-1.88.09-1.27.13-1.88.09-1.18.14-1.7a1.66,1.66,0,0,1,.45-.29,1.73,1.73,0,0,1,.77-.15,1.66,1.66,0,0,1,.86.19,1.42,1.42,0,0,1,.51.59c.18.39.36.82.55,1.27s.39.92.58,1.39l.56,1.4c.18.46.35.89.52,1.3h.09c.21-.56.43-1.12.65-1.67s.43-1.09.64-1.6.41-1,.59-1.43.36-.86.52-1.22a2.07,2.07,0,0,1,.46-.15,2,2,0,0,1,.56-.07,1.54,1.54,0,0,1,.83.17.77.77,0,0,1,.37.49c0,.2.09.54.15,1s.11,1,.17,1.62.11,1.26.17,1.94.11,1.34.15,2,.09,1.22.12,1.76.06,1,.07,1.26a1.59,1.59,0,0,1-.4.18,1.85,1.85,0,0,1-.5.06,1.24,1.24,0,0,1-.62-.16.67.67,0,0,1-.29-.57c-.05-.77-.09-1.52-.13-2.27s-.08-1.45-.11-2.11-.07-1.28-.09-1.85-.06-1-.08-1.44h-.07c-.21.58-.5,1.31-.87,2.2S216.05,53.63,215.48,55Z"/><path class="cls-1" d="M224.05,57.73a3.58,3.58,0,0,1-.48,0,1.19,1.19,0,0,1-.76-.2.81.81,0,0,1-.23-.65V47.4a3.72,3.72,0,0,1,.37-.08,2.45,2.45,0,0,1,.48,0,1.21,1.21,0,0,1,.73.18.81.81,0,0,1,.24.66v9.51A1.51,1.51,0,0,1,224.05,57.73Z"/><path class="cls-1" d="M231.2,48.88v8.75a1.51,1.51,0,0,1-.35.1,3.58,3.58,0,0,1-.48,0,1.14,1.14,0,0,1-.75-.2.85.85,0,0,1-.22-.65v-8h-3a.93.93,0,0,1-.15-.3,1.34,1.34,0,0,1,0-.42.81.81,0,0,1,.17-.57.63.63,0,0,1,.49-.19h7.36a1.29,1.29,0,0,1,.12.28,1.35,1.35,0,0,1,.06.41c0,.53-.22.79-.66.79Z"/><path class="cls-1" d="M241.27,55.1h-4.13l-.83,2.58a1.73,1.73,0,0,1-.32.11,2.46,2.46,0,0,1-.41,0,1.15,1.15,0,0,1-.69-.19.63.63,0,0,1-.27-.56,1.12,1.12,0,0,1,0-.36c0-.12.08-.25.13-.4.15-.47.35-1.08.62-1.83s.55-1.55.85-2.38.6-1.66.9-2.46.57-1.5.8-2.08a2.24,2.24,0,0,1,.52-.19,3,3,0,0,1,.73-.09,2.67,2.67,0,0,1,.88.13.81.81,0,0,1,.52.48c.25.64.52,1.37.82,2.19s.58,1.66.88,2.53.57,1.72.84,2.55l.73,2.27a1.19,1.19,0,0,1-.4.28,1.46,1.46,0,0,1-.58.11,1,1,0,0,1-.66-.18,1.3,1.3,0,0,1-.34-.6Zm-2.07-6.25c-.11.31-.24.65-.37,1s-.28.79-.42,1.21-.3.86-.44,1.29l-.43,1.26h3.34l-.45-1.36c-.15-.46-.3-.9-.44-1.31s-.28-.81-.4-1.18-.23-.68-.3-.94Z"/><path class="cls-1" d="M254.6,52.44a6.69,6.69,0,0,1-.39,2.39,4.41,4.41,0,0,1-1.11,1.7,4.52,4.52,0,0,1-1.73,1,7.28,7.28,0,0,1-2.25.33c-.36,0-.79,0-1.27,0a5.58,5.58,0,0,1-1.35-.25,1,1,0,0,1-.78-.92V48.17a.57.57,0,0,1,.16-.44,1,1,0,0,1,.45-.25,6.18,6.18,0,0,1,1.28-.25c.46,0,.92,0,1.36,0a7.59,7.59,0,0,1,2.29.32,4.67,4.67,0,0,1,1.78,1,4.34,4.34,0,0,1,1.15,1.65A6.07,6.07,0,0,1,254.6,52.44Zm-1.86,0a4.65,4.65,0,0,0-.29-1.72,3.22,3.22,0,0,0-.79-1.18,3.42,3.42,0,0,0-1.19-.68,4.84,4.84,0,0,0-1.45-.22,7.65,7.65,0,0,0-1.49.12v7.47a5,5,0,0,0,.75.11l.84,0a3.52,3.52,0,0,0,2.69-1A4.14,4.14,0,0,0,252.74,52.46Z"/><path class="cls-1" d="M262.43,55.1h-4.12l-.83,2.58a1.73,1.73,0,0,1-.32.11,2.46,2.46,0,0,1-.41,0,1.15,1.15,0,0,1-.69-.19.64.64,0,0,1-.28-.56,1.13,1.13,0,0,1,.06-.36,3.05,3.05,0,0,1,.13-.4c.15-.47.35-1.08.62-1.83s.55-1.55.84-2.38.61-1.66.91-2.46.57-1.5.8-2.08a2.24,2.24,0,0,1,.52-.19,3,3,0,0,1,.73-.09,2.71,2.71,0,0,1,.88.13.81.81,0,0,1,.52.48q.38,1,.81,2.19c.3.82.59,1.66.88,2.53s.58,1.72.85,2.55l.73,2.27a1.19,1.19,0,0,1-.4.28,1.46,1.46,0,0,1-.58.11,1,1,0,0,1-.66-.18,1.3,1.3,0,0,1-.34-.6Zm-2.06-6.25c-.11.31-.24.65-.37,1s-.28.79-.42,1.21-.3.86-.44,1.29l-.43,1.26h3.34l-.45-1.36c-.15-.46-.3-.9-.44-1.31s-.28-.81-.4-1.18-.23-.68-.3-.94Z"/><path class="cls-1" d="M16.68,17.24a.78.78,0,0,0,.78-.77,8.5,8.5,0,0,0-2.18-6.33A8.16,8.16,0,0,0,9.91,7.87a.79.79,0,0,0-.78.77A8.51,8.51,0,0,0,11.31,15,8.14,8.14,0,0,0,16.68,17.24Zm-2.51-6a6.53,6.53,0,0,1,1.71,4.37,6.3,6.3,0,0,1-3.45-1.72,6.51,6.51,0,0,1-1.72-4.36A6.4,6.4,0,0,1,14.17,11.23Z"/><path class="cls-1" d="M43.83,41.79a.78.78,0,0,0-.78.77,8.44,8.44,0,0,0,2.18,6.33,8.16,8.16,0,0,0,5.37,2.27.79.79,0,0,0,.78-.77,8.51,8.51,0,0,0-2.18-6.34A8.2,8.2,0,0,0,43.83,41.79Zm2.51,6a6.53,6.53,0,0,1-1.71-4.37,6.37,6.37,0,0,1,3.45,1.72,6.53,6.53,0,0,1,1.72,4.36A6.4,6.4,0,0,1,46.34,47.8Z"/><path class="cls-1" d="M17,42.7a8.4,8.4,0,0,0-6.28,2.18,8.16,8.16,0,0,0-2.27,5.37.78.78,0,0,0,.78.78h.22a8.38,8.38,0,0,0,6.11-2.18,8.14,8.14,0,0,0,2.26-5.36h0A.78.78,0,0,0,17,42.7Zm-2.54,5a6.53,6.53,0,0,1-4.36,1.72A6.4,6.4,0,0,1,11.84,46a6.58,6.58,0,0,1,4.37-1.71A6.37,6.37,0,0,1,14.49,47.73Z"/><path class="cls-1" d="M43.24,17.05h.22a8.42,8.42,0,0,0,6.11-2.18,8.16,8.16,0,0,0,2.26-5.36h0A.77.77,0,0,0,51,8.72a8.44,8.44,0,0,0-6.28,2.18,8.16,8.16,0,0,0-2.27,5.37A.78.78,0,0,0,43.24,17.05Zm2.58-5a6.53,6.53,0,0,1,4.37-1.71,6.37,6.37,0,0,1-1.72,3.45,6.51,6.51,0,0,1-4.36,1.72A6.4,6.4,0,0,1,45.82,12Z"/><path class="cls-1" d="M59.81,29.21c-3.45-5.44-7.61-8.48-12.35-9A17,17,0,0,0,37.28,22.5a4.3,4.3,0,0,0-1.87-.83,4.61,4.61,0,0,0-4.32,1.56,9.57,9.57,0,0,1-1.73-6.48A17.79,17.79,0,0,1,30.71,11a.79.79,0,0,0-.39-1,.78.78,0,0,0-1,.39c-.05.09-3.38,7.59.12,13.17A4.43,4.43,0,0,0,25,21.74a4.57,4.57,0,0,0-1,.31,15.66,15.66,0,0,1-2.26-9.4c.49-4.14,3.16-7.82,7.93-11,1.47.91,6.6,4.4,7.82,9.26A9.2,9.2,0,0,1,36,18.37a.78.78,0,0,0,1.31.85A10.64,10.64,0,0,0,39,10.58C37.43,4.27,30.34.27,30,.1a.79.79,0,0,0-.8,0c-5.44,3.46-8.49,7.61-9,12.36a17.14,17.14,0,0,0,2.49,10.44,4.76,4.76,0,0,0-1.34,2.43,7.64,7.64,0,0,0,.45,4.37,10.43,10.43,0,0,1-5,.85,18,18,0,0,1-5.72-1.34.78.78,0,0,0-1,.38.78.78,0,0,0,.38,1,19.43,19.43,0,0,0,7.14,1.48,11.92,11.92,0,0,0,4.9-1,17,17,0,0,0,2.1,3c-2.25,1.7-6.82,4.49-11.88,3.89-4.14-.49-7.82-3.16-11-7.93.92-1.48,4.41-6.61,9.27-7.82a9.21,9.21,0,0,1,7.4,1.46.77.77,0,0,0,1.08-.23.79.79,0,0,0-.23-1.08,10.72,10.72,0,0,0-8.64-1.67C4.27,22.36.27,29.45.1,29.75a.79.79,0,0,0,0,.8C3.58,36,7.73,39,12.48,39.6c5.72.68,10.72-2.43,13.12-4.27a31.91,31.91,0,0,0,4,3.39.79.79,0,0,0,.46.15h0A10.85,10.85,0,0,1,30.57,43a18.12,18.12,0,0,1-1.34,5.72.77.77,0,0,0,.39,1,.71.71,0,0,0,.32.07.78.78,0,0,0,.71-.45c0-.09,2.7-6.1.76-11.36A32.65,32.65,0,0,0,34,35.83c1.69,2.42,4,6.65,3.44,11.29-.49,4.13-3.16,7.81-7.93,11-1.47-.92-6.6-4.4-7.81-9.26a9.18,9.18,0,0,1,1.46-7.42.78.78,0,1,0-1.31-.84,10.69,10.69,0,0,0-1.67,8.63c1.58,6.32,8.67,10.32,9,10.49a.85.85,0,0,0,.38.09.81.81,0,0,0,.42-.12c5.44-3.45,8.48-7.61,9-12.35.64-5.34-2-10-3.88-12.6a16.59,16.59,0,0,0,3.3-5,11.41,11.41,0,0,1,4-.45,17.47,17.47,0,0,1,5.71,1.35.79.79,0,0,0,1-.39.78.78,0,0,0-.39-1,18,18,0,0,0-9.85-1.2,6.8,6.8,0,0,0,0-2.77,4.86,4.86,0,0,0-.57-1.43,15.3,15.3,0,0,1,8.93-2c4.13.49,7.82,3.15,11,7.93-.92,1.47-4.42,6.61-9.27,7.82A9.21,9.21,0,0,1,41.56,36a.78.78,0,0,0-.84,1.31,11.25,11.25,0,0,0,6.18,2A10.22,10.22,0,0,0,49.35,39c6.32-1.58,10.32-8.67,10.49-9A.77.77,0,0,0,59.81,29.21ZM30.1,24.52l0,0c0-.1-.11-.19-.17-.29C30,24.35,30,24.44,30.1,24.52ZM30,37.12c-6.12-4.59-7.73-8.89-7.16-11.43a3,3,0,0,1,2.4-2.42,3.62,3.62,0,0,1,.55-.05c2.46,0,3.42,3.3,3.46,3.45a.78.78,0,0,0,.73.57.76.76,0,0,0,.76-.53s1.42-4.07,4.35-3.51a2.81,2.81,0,0,1,2.28,2.29C37.94,27.93,36.32,32.41,30,37.12Z"/></g></g></svg>